<?xml version="1.0" encoding="UTF-8"?>
<!DOCTYPE svg PUBLIC "-//W3C//DTD SVG 1.1//EN" "http://www.w3.org/Graphics/SVG/1.1/DTD/svg11.dtd">
<!-- Creator: CorelDRAW 2018 (64 Bit) -->
<svg xmlns="http://www.w3.org/2000/svg" xml:space="preserve" width="217.365mm" height="189.678mm" version="1.1" style="shape-rendering:geometricPrecision; text-rendering:geometricPrecision; image-rendering:optimizeQuality; fill-rule:evenodd; clip-rule:evenodd"
viewBox="0 0 2023.21 1765.51"
 xmlns:xlink="http://www.w3.org/1999/xlink"
 aria-hidden="true"
 focusable="false"
 data-prefix="fas"
 data-icon="key"
 role="img">
 <defs>
  <style type="text/css">
   <![CDATA[
    .str0 {stroke:white;stroke-width:93.08;stroke-miterlimit:22.9256}
    .fil0 {fill:#39A6A3}
   ]]>
  </style>
 </defs>
 <g id="Capa_x0020_1">
  <metadata id="CorelCorpID_0Corel-Layer"/>
  <g id="_1812272303136">
   <path class="fil0" d="M754.9 862.74c238.26,0 431.37,-193.11 431.37,-431.37 0,-238.26 -193.11,-431.37 -431.37,-431.37 -238.26,0 -431.37,193.11 -431.37,431.37 0,238.26 193.11,431.37 431.37,431.37zm301.96 107.84l-56.28 0c-74.82,34.38 -158.06,53.92 -245.68,53.92 -87.62,0 -170.53,-19.55 -245.68,-53.92l-56.28 0c-250.06,0 -452.94,202.88 -452.94,452.94l0 140.19c0,89.31 72.46,161.76 161.76,161.76l1186.27 0c89.31,0 161.76,-72.46 161.76,-161.76l0 -140.19c0,-250.06 -202.88,-452.94 -452.94,-452.94z"/>
  </g>
  <g id="_1812272302816">
   <path class="fil0 str0" d="M1319.94 1605.96c-150.24,-150.24 -150.23,-393.82 0,-544.05 17.34,-17.34 35.94,-32.66 55.48,-45.99l-4.64 -78.87c-0.88,-14.95 4.68,-29.58 15.27,-40.17 0,0 0,0 0,0l57.53 -57.53 -61.82 -61.83c-20.49,-20.49 -20.49,-53.7 0,-74.19l61.82 -61.82 -61.82 -61.82c-20.49,-20.49 -20.49,-53.7 0,-74.19l173.11 -173.11c20.49,-20.49 53.7,-20.49 74.19,0l120.65 120.65c9.84,9.84 15.36,23.18 15.37,37.09l0 500.16c35.67,17.98 69.13,41.83 98.92,71.62 150.24,150.24 150.24,393.81 0,544.05 -150.68,150.68 -393.38,150.68 -544.06,0zm346.22 -197.84c-40.97,-40.97 -107.4,-40.97 -148.38,0 -40.97,40.97 -40.97,107.4 0,148.38 40.97,40.97 107.4,40.97 148.38,0 40.97,-40.97 40.97,-107.4 0,-148.38z"/>
  </g>
 </g>
</svg>
