<?xml version="1.0" encoding="UTF-8"?>
<!DOCTYPE svg PUBLIC "-//W3C//DTD SVG 1.1//EN" "http://www.w3.org/Graphics/SVG/1.1/DTD/svg11.dtd">
<!-- Creator: CorelDRAW 2018 (64 Bit) -->
<svg xmlns="http://www.w3.org/2000/svg" xml:space="preserve" width="289.204mm" height="189.812mm" version="1.1" style="shape-rendering:geometricPrecision; text-rendering:geometricPrecision; image-rendering:optimizeQuality; fill-rule:evenodd; clip-rule:evenodd"
viewBox="0 0 5613.35 3684.19"
 xmlns:xlink="http://www.w3.org/1999/xlink"
 aria-hidden="true"
 focusable="false"
 data-prefix="fas"
 data-icon="user-plus"
 role="img">
 <defs>
  <style type="text/css">
   <![CDATA[
    .str0 {stroke:white;stroke-width:97.05;stroke-miterlimit:22.9256}
    .fil0 {fill:#39A6A3}
   ]]>
  </style>
 </defs>
 <g id="Capa_x0020_1">
  <metadata id="CorelCorpID_0Corel-Layer"/>
  <g id="_1812275188016">
   <path class="fil0" d="M3983.02 784.77l-429.44 -685.51c-38.38,-61.54 -106.53,-99.25 -179.32,-99.25l-2673.24 0c-72.79,0 -140.94,37.72 -179.32,99.25l-429.44 685.51c-221.67,354.01 -25.15,846.31 389.08,902.55 29.78,3.97 60.21,5.95 90.65,5.95 195.86,0 369.22,-86.02 488.33,-219.02 119.11,133 293.13,219.02 488.33,219.02 195.86,0 369.22,-86.02 488.33,-219.02 119.11,133 293.13,219.02 488.33,219.02 195.86,0 369.22,-86.02 488.33,-219.02 119.77,133 293.13,219.02 488.33,219.02 31.1,0 60.88,-1.99 90.65,-5.95 415.54,-55.58 612.73,-547.88 390.4,-902.55l-0 0zm-479.73 1120.91c-66.17,0 -131.68,-9.93 -195.2,-25.15l-0 660.37 -2540.9 0 0 -660.37c-63.52,14.56 -129.03,25.15 -195.2,25.15 -39.7,0 -80.06,-2.65 -119.11,-7.94 -37.05,-5.29 -73.45,-13.9 -108.52,-23.82l0 1302.21c0,117.12 94.62,211.74 211.74,211.74l2964.38 0c117.12,0 211.74,-94.62 211.74,-211.74l0 -1302.21c-35.73,10.59 -71.46,19.19 -108.52,23.82 -40.36,5.29 -80.06,7.94 -120.43,7.94z"/>
  </g>
  <g id="_1812275189200">
   <path class="fil0 str0" d="M5504.19 2483.58l-242.55 0 0 -242.55c0,-33.35 -27.29,-60.64 -60.64,-60.64l-121.27 0c-33.35,0 -60.64,27.29 -60.64,60.64l0 242.55 -242.55 0c-33.35,0 -60.64,27.29 -60.64,60.64l0 121.27c0,33.35 27.29,60.64 60.64,60.64l242.55 0 0 242.55c0,33.35 27.29,60.64 60.64,60.64l121.27 0c33.35,0 60.64,-27.29 60.64,-60.64l0 -242.55 242.55 0c33.35,0 60.64,-27.29 60.64,-60.64l0 -121.27c0,-33.35 -27.29,-60.64 -60.64,-60.64zm-1515.91 181.91c267.94,0 485.09,-217.16 485.09,-485.09 0,-267.93 -217.16,-485.09 -485.09,-485.09 -267.94,0 -485.09,217.16 -485.09,485.09 0,267.94 217.15,485.09 485.09,485.09zm339.56 121.27l-63.29 0c-84.13,38.66 -177.74,60.64 -276.28,60.64 -98.53,0 -191.76,-21.98 -276.27,-60.64l-63.29 0c-281.2,0 -509.35,228.15 -509.35,509.35l0 157.65c0,100.43 81.48,181.91 181.91,181.91l1334 0c100.43,0 181.91,-81.48 181.91,-181.91l0 -157.65c0,-281.2 -228.14,-509.35 -509.34,-509.35z"/>
  </g>
 </g>
</svg>
